<?xml version="1.0" encoding="UTF-8"?>
<svg xmlns="http://www.w3.org/2000/svg" xmlns:xlink="http://www.w3.org/1999/xlink" width="32px" height="32px" viewBox="0 0 32 32" version="1.1">
<g id="surface1">
<path style=" stroke:none;fill-rule:nonzero;fill:rgb(100%,44.313725%,31.764706%);fill-opacity:1;" d="M 16 6.765625 C 17.464844 5.917969 19.113281 5.429688 20.800781 5.347656 C 22.492188 5.261719 24.179688 5.582031 25.722656 6.277344 C 24.875 4.40625 23.511719 2.820312 21.785156 1.707031 C 20.0625 0.59375 18.050781 0 16 0 C 13.949219 0 11.9375 0.59375 10.214844 1.707031 C 8.488281 2.820312 7.125 4.40625 6.277344 6.277344 C 7.820312 5.582031 9.507812 5.261719 11.199219 5.347656 C 12.886719 5.429688 14.535156 5.917969 16 6.765625 Z M 16 6.765625 "/>
<path style=" stroke:none;fill-rule:nonzero;fill:rgb(100%,44.313725%,31.764706%);fill-opacity:1;" d="M 16 25.234375 C 14.535156 26.082031 12.886719 26.570312 11.199219 26.652344 C 9.507812 26.738281 7.820312 26.417969 6.277344 25.722656 C 7.125 27.59375 8.488281 29.179688 10.214844 30.292969 C 11.9375 31.40625 13.949219 32 16 32 C 18.050781 32 20.0625 31.40625 21.785156 30.292969 C 23.511719 29.179688 24.875 27.59375 25.722656 25.722656 C 24.179688 26.417969 22.492188 26.738281 20.800781 26.652344 C 19.113281 26.570312 17.464844 26.082031 16 25.234375 Z M 16 25.234375 "/>
<path style=" stroke:none;fill-rule:nonzero;fill:rgb(100%,44.313725%,31.764706%);fill-opacity:1;" d="M 6.765625 16 C 5.917969 14.535156 5.429688 12.886719 5.347656 11.199219 C 5.261719 9.507812 5.582031 7.820312 6.277344 6.277344 C 4.40625 7.125 2.820312 8.488281 1.707031 10.214844 C 0.59375 11.9375 0 13.949219 0 16 C 0 18.050781 0.59375 20.0625 1.707031 21.785156 C 2.820312 23.511719 4.40625 24.878906 6.277344 25.722656 C 5.582031 24.179688 5.261719 22.492188 5.347656 20.800781 C 5.429688 19.113281 5.917969 17.464844 6.765625 16 Z M 6.765625 16 "/>
<path style=" stroke:none;fill-rule:nonzero;fill:rgb(100%,22.352941%,16.470588%);fill-opacity:1;" d="M 6.765625 16 C 7.878906 14.078125 9.5625 12.546875 11.585938 11.625 L 11.601562 11.566406 L 11.636719 11.554688 C 12.5625 9.546875 14.085938 7.875 16 6.765625 C 14.535156 5.917969 12.886719 5.429688 11.199219 5.347656 C 9.507812 5.261719 7.820312 5.582031 6.277344 6.277344 C 5.582031 7.820312 5.261719 9.507812 5.347656 11.199219 C 5.429688 12.886719 5.917969 14.535156 6.765625 16 Z M 6.765625 16 "/>
<path style=" stroke:none;fill-rule:nonzero;fill:rgb(100%,22.352941%,16.470588%);fill-opacity:1;" d="M 16 25.234375 C 14.09375 24.132812 12.570312 22.464844 11.644531 20.464844 L 11.601562 20.449219 L 11.578125 20.375 C 9.558594 19.449219 7.875 17.921875 6.765625 16 C 5.917969 17.464844 5.429688 19.113281 5.347656 20.800781 C 5.261719 22.492188 5.582031 24.179688 6.277344 25.722656 C 7.820312 26.417969 9.507812 26.738281 11.199219 26.652344 C 12.886719 26.570312 14.535156 26.082031 16 25.234375 Z M 16 25.234375 "/>
<path style=" stroke:none;fill-rule:nonzero;fill:rgb(100%,12.941176%,13.333333%);fill-opacity:1;" d="M 10.667969 16.179688 C 10.667969 16.125 10.667969 16.070312 10.667969 16.015625 L 10.667969 16 C 10.667969 14.566406 10.957031 13.152344 11.519531 11.832031 C 11.542969 11.761719 11.566406 11.695312 11.59375 11.621094 C 9.566406 12.542969 7.878906 14.074219 6.765625 16 C 7.875 17.921875 9.558594 19.449219 11.578125 20.375 C 11.535156 20.261719 11.5 20.160156 11.464844 20.050781 C 10.960938 18.820312 10.6875 17.507812 10.667969 16.179688 Z M 10.667969 16.179688 "/>
<path style=" stroke:none;fill-rule:nonzero;fill:rgb(100%,44.313725%,31.764706%);fill-opacity:1;" d="M 32 16 C 32 13.945312 31.40625 11.9375 30.292969 10.214844 C 29.179688 8.488281 27.59375 7.121094 25.722656 6.277344 C 26.417969 7.820312 26.738281 9.507812 26.652344 11.199219 C 26.570312 12.886719 26.082031 14.535156 25.234375 16 C 26.082031 17.464844 26.570312 19.113281 26.652344 20.800781 C 26.738281 22.492188 26.417969 24.179688 25.722656 25.722656 C 27.59375 24.878906 29.179688 23.511719 30.292969 21.785156 C 31.40625 20.0625 32 18.054688 32 16 Z M 32 16 "/>
<path style=" stroke:none;fill-rule:nonzero;fill:rgb(100%,22.352941%,16.470588%);fill-opacity:1;" d="M 16 6.765625 C 17.910156 7.867188 19.429688 9.535156 20.355469 11.535156 L 20.433594 11.566406 C 20.433594 11.59375 20.453125 11.617188 20.464844 11.644531 C 22.464844 12.570312 24.132812 14.089844 25.234375 16 C 26.082031 14.535156 26.570312 12.886719 26.652344 11.199219 C 26.738281 9.507812 26.417969 7.820312 25.722656 6.277344 C 24.179688 5.582031 22.492188 5.261719 20.800781 5.347656 C 19.113281 5.429688 17.464844 5.917969 16 6.765625 Z M 16 6.765625 "/>
<path style=" stroke:none;fill-rule:nonzero;fill:rgb(100%,22.352941%,16.470588%);fill-opacity:1;" d="M 25.234375 16 C 24.132812 17.90625 22.464844 19.429688 20.464844 20.355469 C 20.453125 20.386719 20.445312 20.417969 20.433594 20.449219 L 20.347656 20.480469 C 19.421875 22.472656 17.902344 24.132812 16 25.234375 C 17.464844 26.082031 19.113281 26.570312 20.800781 26.652344 C 22.492188 26.738281 24.179688 26.417969 25.722656 25.722656 C 26.417969 24.179688 26.738281 22.492188 26.652344 20.800781 C 26.570312 19.113281 26.082031 17.464844 25.234375 16 Z M 25.234375 16 "/>
<path style=" stroke:none;fill-rule:nonzero;fill:rgb(100%,12.941176%,13.333333%);fill-opacity:1;" d="M 20.464844 11.644531 C 20.605469 12.035156 20.726562 12.40625 20.832031 12.765625 C 21.015625 13.34375 21.148438 13.933594 21.230469 14.535156 C 21.300781 15.003906 21.332031 15.472656 21.332031 15.945312 C 21.332031 15.964844 21.332031 15.980469 21.332031 16 C 21.332031 17.269531 21.105469 18.53125 20.660156 19.722656 C 20.597656 19.9375 20.535156 20.148438 20.464844 20.363281 C 22.464844 19.433594 24.132812 17.910156 25.234375 16 C 24.132812 14.089844 22.464844 12.570312 20.464844 11.644531 Z M 20.464844 11.644531 "/>
<path style=" stroke:none;fill-rule:nonzero;fill:rgb(100%,12.941176%,13.333333%);fill-opacity:1;" d="M 16 10.667969 L 16.054688 10.667969 C 16.394531 10.664062 16.730469 10.683594 17.066406 10.71875 L 17.09375 10.71875 L 17.203125 10.730469 C 17.941406 10.816406 18.664062 10.976562 19.367188 11.207031 C 19.683594 11.304688 20.011719 11.410156 20.355469 11.53125 C 19.429688 9.53125 17.910156 7.867188 16 6.765625 C 14.085938 7.875 12.5625 9.546875 11.636719 11.554688 L 12.125 11.394531 C 13.359375 10.914062 14.675781 10.664062 16 10.667969 Z M 16 10.667969 "/>
<path style=" stroke:none;fill-rule:nonzero;fill:rgb(100%,12.941176%,13.333333%);fill-opacity:1;" d="M 16 21.332031 L 15.988281 21.332031 C 15.863281 21.332031 15.742188 21.332031 15.617188 21.332031 C 14.550781 21.296875 13.492188 21.097656 12.484375 20.75 C 12.214844 20.664062 11.9375 20.574219 11.644531 20.476562 C 12.574219 22.472656 14.09375 24.132812 16 25.234375 C 17.902344 24.132812 19.421875 22.472656 20.347656 20.480469 C 20.039062 20.582031 19.746094 20.671875 19.460938 20.753906 C 18.347656 21.136719 17.175781 21.332031 16 21.332031 Z M 16 21.332031 "/>
<path style=" stroke:none;fill-rule:nonzero;fill:rgb(89.803922%,17.647059%,12.156863%);fill-opacity:0.501961;" d="M 15.617188 21.332031 C 14.550781 21.277344 13.5 21.082031 12.484375 20.75 C 13.492188 21.097656 14.550781 21.296875 15.617188 21.332031 Z M 15.617188 21.332031 "/>
<path style=" stroke:none;fill-rule:nonzero;fill:rgb(89.803922%,17.647059%,12.156863%);fill-opacity:0.501961;" d="M 11.464844 20.054688 C 10.957031 18.582031 10.695312 17.378906 10.667969 16.179688 C 10.6875 17.511719 10.960938 18.824219 11.464844 20.054688 Z M 11.464844 20.054688 "/>
<path style=" stroke:none;fill-rule:nonzero;fill:rgb(89.803922%,17.647059%,12.156863%);fill-opacity:0.501961;" d="M 10.667969 16 L 10.667969 16.015625 C 10.667969 14.738281 10.949219 13.457031 11.519531 11.832031 C 10.957031 13.152344 10.667969 14.566406 10.667969 16 Z M 10.667969 16 "/>
<path style=" stroke:none;fill-rule:nonzero;fill:rgb(89.803922%,17.647059%,12.156863%);fill-opacity:0.501961;" d="M 16 21.332031 C 17.175781 21.332031 18.347656 21.136719 19.460938 20.753906 C 18.335938 21.113281 17.167969 21.308594 15.988281 21.332031 Z M 16 21.332031 "/>
<path style=" stroke:none;fill-rule:nonzero;fill:rgb(89.803922%,17.647059%,12.156863%);fill-opacity:0.501961;" d="M 17.203125 10.734375 C 17.9375 10.832031 18.660156 10.992188 19.367188 11.210938 C 18.664062 10.980469 17.941406 10.820312 17.203125 10.734375 Z M 17.203125 10.734375 "/>
<path style=" stroke:none;fill-rule:nonzero;fill:rgb(89.803922%,17.647059%,12.156863%);fill-opacity:0.501961;" d="M 16 10.667969 C 14.675781 10.664062 13.359375 10.914062 12.125 11.394531 C 13.636719 10.914062 14.859375 10.667969 16.054688 10.667969 Z M 16 10.667969 "/>
<path style=" stroke:none;fill-rule:nonzero;fill:rgb(89.803922%,17.647059%,12.156863%);fill-opacity:0.501961;" d="M 20.832031 12.765625 C 21.007812 13.34375 21.140625 13.9375 21.230469 14.535156 C 21.148438 13.933594 21.015625 13.34375 20.832031 12.765625 Z M 20.832031 12.765625 "/>
<path style=" stroke:none;fill-rule:nonzero;fill:rgb(89.803922%,17.647059%,12.156863%);fill-opacity:0.501961;" d="M 21.332031 16 C 21.332031 15.980469 21.332031 15.964844 21.332031 15.945312 C 21.332031 17.09375 21.101562 18.277344 20.664062 19.722656 C 21.109375 18.53125 21.335938 17.269531 21.332031 16 Z M 21.332031 16 "/>
<path style=" stroke:none;fill-rule:nonzero;fill:rgb(100%,22.352941%,16.470588%);fill-opacity:1;" d="M 11.636719 11.554688 L 11.601562 11.566406 L 11.585938 11.625 L 11.613281 11.613281 Z M 11.636719 11.554688 "/>
<path style=" stroke:none;fill-rule:nonzero;fill:rgb(100%,22.352941%,16.470588%);fill-opacity:1;" d="M 11.578125 20.375 L 11.601562 20.449219 L 11.644531 20.464844 L 11.613281 20.386719 Z M 11.578125 20.375 "/>
<path style=" stroke:none;fill-rule:nonzero;fill:rgb(100%,12.941176%,13.333333%);fill-opacity:1;" d="M 11.613281 11.613281 L 11.585938 11.625 C 11.558594 11.695312 11.535156 11.761719 11.511719 11.835938 C 11.542969 11.757812 11.578125 11.6875 11.613281 11.613281 Z M 11.613281 11.613281 "/>
<path style=" stroke:none;fill-rule:nonzero;fill:rgb(100%,12.941176%,13.333333%);fill-opacity:1;" d="M 11.464844 20.054688 C 11.5 20.160156 11.535156 20.265625 11.578125 20.378906 L 11.613281 20.390625 C 11.558594 20.265625 11.519531 20.164062 11.464844 20.054688 Z M 11.464844 20.054688 "/>
<path style=" stroke:none;fill-rule:nonzero;fill:rgb(100%,22.352941%,16.470588%);fill-opacity:1;" d="M 20.464844 11.644531 C 20.464844 11.617188 20.445312 11.59375 20.433594 11.566406 L 20.355469 11.535156 C 20.367188 11.5625 20.378906 11.585938 20.386719 11.613281 Z M 20.464844 11.644531 "/>
<path style=" stroke:none;fill-rule:nonzero;fill:rgb(100%,22.352941%,16.470588%);fill-opacity:1;" d="M 20.347656 20.480469 L 20.433594 20.449219 C 20.433594 20.417969 20.453125 20.386719 20.464844 20.355469 L 20.386719 20.386719 Z M 20.347656 20.480469 "/>
<path style=" stroke:none;fill-rule:nonzero;fill:rgb(100%,100%,100%);fill-opacity:1;" d="M 21.230469 14.535156 C 21.296875 15.003906 21.328125 15.472656 21.332031 15.945312 C 21.332031 15.472656 21.300781 15.003906 21.230469 14.535156 Z M 21.230469 14.535156 "/>
<path style=" stroke:none;fill-rule:nonzero;fill:rgb(100%,12.941176%,13.333333%);fill-opacity:1;" d="M 20.832031 12.765625 C 20.726562 12.40625 20.601562 12.035156 20.464844 11.644531 L 20.386719 11.613281 C 20.558594 11.988281 20.707031 12.371094 20.832031 12.765625 Z M 20.832031 12.765625 "/>
<path style=" stroke:none;fill-rule:nonzero;fill:rgb(100%,12.941176%,13.333333%);fill-opacity:1;" d="M 20.386719 20.386719 L 20.464844 20.355469 C 20.535156 20.140625 20.601562 19.925781 20.664062 19.714844 C 20.582031 19.949219 20.480469 20.171875 20.386719 20.386719 Z M 20.386719 20.386719 "/>
<path style=" stroke:none;fill-rule:nonzero;fill:rgb(100%,12.941176%,13.333333%);fill-opacity:1;" d="M 12.125 11.394531 L 11.636719 11.554688 L 11.613281 11.613281 C 11.78125 11.535156 11.945312 11.460938 12.125 11.394531 Z M 12.125 11.394531 "/>
<path style=" stroke:none;fill-rule:nonzero;fill:rgb(100%,12.941176%,13.333333%);fill-opacity:1;" d="M 20.386719 11.613281 C 20.386719 11.585938 20.367188 11.5625 20.355469 11.535156 C 20.011719 11.417969 19.683594 11.308594 19.367188 11.210938 C 19.714844 11.328125 20.054688 11.460938 20.386719 11.613281 Z M 20.386719 11.613281 "/>
<path style=" stroke:none;fill-rule:nonzero;fill:rgb(100%,100%,100%);fill-opacity:1;" d="M 16.054688 10.667969 C 16.394531 10.667969 16.730469 10.683594 17.066406 10.71875 C 16.730469 10.683594 16.394531 10.664062 16.054688 10.667969 Z M 16.054688 10.667969 "/>
<path style=" stroke:none;fill-rule:nonzero;fill:rgb(100%,100%,100%);fill-opacity:1;" d="M 17.09375 10.722656 C 17.128906 10.722656 17.167969 10.734375 17.203125 10.734375 Z M 17.09375 10.722656 "/>
<path style=" stroke:none;fill-rule:nonzero;fill:rgb(100%,12.941176%,13.333333%);fill-opacity:1;" d="M 19.460938 20.753906 C 19.746094 20.671875 20.039062 20.582031 20.347656 20.480469 L 20.386719 20.386719 C 20.085938 20.527344 19.777344 20.648438 19.460938 20.753906 Z M 19.460938 20.753906 "/>
<path style=" stroke:none;fill-rule:nonzero;fill:rgb(100%,12.941176%,13.333333%);fill-opacity:1;" d="M 11.613281 20.386719 L 11.644531 20.464844 C 11.9375 20.566406 12.214844 20.65625 12.484375 20.738281 C 12.1875 20.632812 11.894531 20.515625 11.613281 20.386719 Z M 11.613281 20.386719 "/>
</g>
</svg>
